<svg id="Layer_1" enable-background="new 0 0 496.392 496.392" height="512" viewBox="0 0 496.392 496.392" width="512" xmlns="http://www.w3.org/2000/svg"><path d="m471.666 293.912c-91.372 25.11-181.225-44.119-181.225-138.167 0-43.856 19.688-84.701 54.018-112.063 9.693-7.724 7.274-23.109-4.328-27.483-162.868-61.411-335.893 59.538-335.893 232.193 0 137.069 110.919 248 248 248 111.658 0 210.076-75.167 239.334-182.793 3.326-12.232-8.164-22.915-19.906-19.687zm-219.428 170.48c-119.103 0-216-96.897-216-216 0-139.352 130.859-242.974 267.31-210.056-28.938 31.963-45.105 73.45-45.105 117.409 0 103.392 89.766 185.291 193.85 174.282-32.755 80.258-111.638 134.365-200.055 134.365z"/></svg>