<svg id="Layer_1" enable-background="new 0 0 496 496" height="512" viewBox="0 0 496 496" width="512" xmlns="http://www.w3.org/2000/svg"><path d="m306.924 112.639c-43.531 0-83.154 23.398-104.346 60.613-69.715-11.984-128.621 46.662-123.454 109.691-44.123 2.933-79.124 39.764-79.124 84.615 0 46.761 38.042 84.803 84.803 84.803h214.86c73.662 0 124.627-73.711 99.173-142.372 65.262-77.326 10.294-197.35-91.912-197.35zm0 32c69.486 0 111.288 76.998 74.511 135.056-23.53-28.69-60.146-43.087-97.188-37.667-9.004-25.442-27.334-46.062-50.585-58.248 16.149-24.189 43.457-39.141 73.262-39.141zm-7.261 275.722h-214.86c-29.115 0-52.803-23.687-52.803-52.803 0-32.896 29.983-58.056 62.673-51.885 11.029 2.076 20.721-7.568 18.705-18.601-1.044-5.718-2.516-15.593-2.516-19.643 0-40.653 33.073-73.726 73.726-73.726 35.547 0 66.033 25.32 72.488 60.205.834 4.502 3.556 8.432 7.477 10.794 10.05 6.055 14.244-1.793 35.11-1.793 40.652 0 73.726 33.073 73.726 73.726s-33.074 73.726-73.726 73.726zm196.337-187.722c0 8.836-7.163 16-16 16h-18c-8.837 0-16-7.164-16-16s7.163-16 16-16h18c8.837 0 16 7.163 16 16zm-205.152-155v-18c0-8.836 7.163-16 16-16s16 7.164 16 16v18c0 8.836-7.163 16-16 16s-16-7.164-16-16zm149.718 21.325c6.249 6.248 6.249 16.379 0 22.627l-12.728 12.727c-3.124 3.125-7.219 4.687-11.313 4.687-14.127 0-21.421-17.207-11.313-27.314l12.728-12.727c6.248-6.249 16.378-6.249 22.626 0zm-267.393 22.735c-6.249-6.249-6.249-16.379 0-22.627 6.248-6.249 16.378-6.249 22.627 0l12.728 12.728c10.112 10.111 2.809 27.313-11.313 27.313-4.095 0-8.189-1.562-11.313-4.687z"/></svg>