<svg id="Layer_1" enable-background="new 0 0 496.091 496.091" height="512" viewBox="0 0 496.091 496.091" width="512" xmlns="http://www.w3.org/2000/svg"><path d="m78.757 441.091v10c0 8.836-7.164 16-16 16s-16-7.164-16-16v-10c0-8.836 7.164-16 16-16s16 7.163 16 16zm54-16c-8.836 0-16 7.164-16 16v39c0 8.836 7.164 16 16 16s16-7.164 16-16v-39c0-8.837-7.163-16-16-16zm359.983-213.441c-12.314 44.588-43.065 82.804-85.386 104.372-6.398 52.219-51.015 92.792-104.933 92.792h-214.86c-46.761 0-84.803-38.042-84.803-84.803 0-44.851 35.001-81.682 79.123-84.615-4.025-49.095 32.192-99.972 87.082-109.635 22.528-98.394 127.093-154.645 221.65-118.99 11.599 4.373 14.025 19.755 4.328 27.483-21.088 16.808-33.183 41.899-33.183 68.838 0 57.739 55.158 100.307 111.319 84.872 11.956-3.286 22.964 7.731 19.663 19.686zm-116.594 91.438c0-49.534-48.246-85.256-95.799-70.369-9.151 2.865-18.765-2.919-20.514-12.358-6.455-34.885-36.94-60.205-72.488-60.205-40.653 0-73.726 33.073-73.726 73.726 0 4.05 1.471 13.924 2.516 19.643 2.018 11.042-7.686 20.675-18.705 18.601-32.728-6.178-62.673 19.029-62.673 51.885 0 29.116 23.688 52.803 52.803 52.803h214.86c40.653-.001 73.726-33.074 73.726-73.726zm76.547-76.033c-101.168 2.476-159.053-114.009-98.153-193.055-69.021-11.726-133.666 31.545-152.375 95.211 38.982 5.487 71.753 32.292 84.84 69.269 55.438-8.111 106.727 28.286 118.61 81.585 20.022-13.187 36.379-31.615 47.078-53.01zm-222.936 219.536c0 11.855-9.645 21.5-21.5 21.5s-21.5-9.645-21.5-21.5 9.645-21.5 21.5-21.5 21.5 9.645 21.5 21.5zm70 28c0 11.855-9.645 21.5-21.5 21.5s-21.5-9.645-21.5-21.5 9.645-21.5 21.5-21.5 21.5 9.645 21.5 21.5zm70-30c0 11.855-9.645 21.5-21.5 21.5s-21.5-9.645-21.5-21.5 9.645-21.5 21.5-21.5 21.5 9.645 21.5 21.5z"/></svg>