<svg id="Layer_1" enable-background="new 0 0 496 496" height="512" viewBox="0 0 496 496" width="512" xmlns="http://www.w3.org/2000/svg"><path d="m306.924 69c-43.531 0-83.154 23.398-104.346 60.613-69.554-11.954-128.639 46.444-123.455 109.691-44.122 2.933-79.123 39.764-79.123 84.615 0 46.761 38.042 84.803 84.803 84.803h214.859c73.654 0 124.63-73.702 99.174-142.372 65.262-77.325 10.295-197.35-91.912-197.35zm0 32c69.487 0 111.288 76.999 74.511 135.057-23.532-28.693-60.15-43.086-97.188-37.667-9.004-25.442-27.333-46.062-50.585-58.248 16.149-24.19 43.458-39.142 73.262-39.142zm-7.261 275.723h-214.86c-29.116 0-52.803-23.688-52.803-52.804 0-32.896 29.983-58.056 62.673-51.885 11.031 2.077 20.721-7.571 18.705-18.601-1.044-5.718-2.516-15.593-2.516-19.643 0-40.652 33.073-73.726 73.726-73.726 35.548 0 66.033 25.32 72.488 60.204 1.745 9.429 11.357 15.229 20.513 12.358 47.472-14.861 95.799 20.746 95.799 70.369.001 40.654-33.073 73.728-73.725 73.728zm196.337-187.723c0 8.836-7.164 16-16 16h-18c-8.836 0-16-7.164-16-16s7.164-16 16-16h18c8.836 0 16 7.164 16 16zm-205.152-155v-18c0-8.836 7.164-16 16-16s16 7.164 16 16v18c0 8.836-7.164 16-16 16s-16-7.164-16-16zm149.719 21.326c6.248 6.249 6.248 16.379 0 22.627l-12.728 12.728c-6.249 6.248-16.378 6.249-22.627 0-6.248-6.249-6.248-16.379 0-22.627l12.728-12.728c6.249-6.249 16.379-6.248 22.627 0zm-267.394 22.735c-6.249-6.249-6.249-16.379 0-22.627 6.248-6.249 16.378-6.249 22.627 0l12.728 12.728c10.112 10.111 2.809 27.313-11.313 27.313-4.095 0-8.189-1.562-11.313-4.687zm-97.173 362.939v10c0 8.836-7.164 16-16 16s-16-7.164-16-16v-10c0-8.836 7.164-16 16-16s16 7.164 16 16zm70 0v39c0 8.836-7.164 16-16 16s-16-7.164-16-16v-39c0-8.836 7.164-16 16-16s16 7.164 16 16zm81 5.5c0 11.855-9.645 21.5-21.5 21.5s-21.5-9.645-21.5-21.5 9.645-21.5 21.5-21.5 21.5 9.645 21.5 21.5zm70 28c0 11.855-9.645 21.5-21.5 21.5s-21.5-9.645-21.5-21.5 9.645-21.5 21.5-21.5 21.5 9.645 21.5 21.5zm70-30c0 11.855-9.645 21.5-21.5 21.5s-21.5-9.645-21.5-21.5 9.645-21.5 21.5-21.5 21.5 9.645 21.5 21.5z"/></svg>