<svg id="Layer_1" enable-background="new 0 0 496.016 496.016" height="512" viewBox="0 0 496.016 496.016" width="512" xmlns="http://www.w3.org/2000/svg"><path d="m475.761 235.6c-56.915 15.638-112.882-27.482-112.882-86.062 0-27.316 12.265-52.759 33.648-69.803 9.692-7.725 7.274-23.109-4.328-27.483-95.721-36.09-201.38 20.999-224.057 120.39-55.317 9.672-92.267 61.014-88.065 110.947-44.639 2.865-80.077 40.092-80.077 85.442 0 47.211 38.408 85.62 85.619 85.62h217.409c54.495 0 99.583-41.033 106.001-93.825 43.324-22.046 74.09-60.994 86.393-105.538 3.301-11.951-7.703-22.974-19.661-19.688zm-172.733 187.051h-217.409c-29.565 0-53.619-24.054-53.619-53.62 0-33.401 30.444-58.954 63.641-52.688 11.024 2.08 20.726-7.564 18.705-18.603-1.058-5.781-2.548-15.78-2.548-19.907 0-41.24 33.551-74.791 74.79-74.791 36.062 0 66.987 25.686 73.534 61.075 1.744 9.426 11.353 15.227 20.514 12.358 48.17-15.079 97.183 21.061 97.183 71.385-.001 41.24-33.551 74.791-74.791 74.791zm104.292-97.777c-11.794-53.552-63.386-91.021-120.018-82.652-13.206-37.494-46.44-64.663-85.962-70.144 18.817-64.424 84.337-108.765 154.769-96.632-61.668 79.612-3.621 198.04 99.285 195.281-10.879 21.882-27.593 40.717-48.074 54.147z"/></svg>