<svg id="Layer_1" enable-background="new 0 0 496 496" height="512" viewBox="0 0 496 496" width="512" xmlns="http://www.w3.org/2000/svg"><path d="m496 226.752c0 55.937-35.84 102.973-85.405 120.364l-69.785 103.576c-9.237 13.71-30.877 5.966-29.186-10.568l5.251-51.345h-30.875c-9.387 0-16.766-8.058-15.938-17.41l7.838-88.569c.779-8.802 8.549-15.313 17.348-14.527 8.802.778 15.306 8.546 14.527 17.348l-6.297 71.158h31.116c9.482 0 16.88 8.209 15.917 17.628l-.557 5.442 21.972-32.611h-19.306c-10.381 0-18.011-9.747-15.538-19.816l10.973-44.676c2.107-8.582 10.771-13.831 19.354-11.722 8.582 2.107 13.83 10.773 11.722 19.354l-6.106 24.859c31.57 0 29.591-.055 31.074.141 35.664-14.379 59.901-49.641 59.901-88.626 0-64.293-62.618-110.401-124.09-91.15-9.152 2.867-18.767-2.923-20.513-12.358-8.361-45.191-47.851-77.991-93.897-77.991-52.659 0-95.5 42.841-95.5 95.5 0 5.595 1.956 18.368 3.189 25.104 2.022 11.042-7.686 20.686-18.707 18.604-43.06-8.135-82.482 25.045-82.482 68.291 0 30.162 19.031 56.006 46.286 65.563l4.776-53.973c.779-8.802 8.549-15.309 17.348-14.527 8.802.778 15.307 8.546 14.527 17.348-.41 4.636 2.152-24.313-8.459 95.59h44.522c9.483 0 16.88 8.209 15.917 17.628l-2.502 24.47 42.513-63.098h-32.928c-10.381 0-18.011-9.747-15.538-19.816l14-57c2.107-8.581 10.776-13.834 19.354-11.722 8.582 2.107 13.83 10.773 11.722 19.355l-9.133 37.184h42.595c12.787 0 20.423 14.323 13.269 24.94l-95 141c-9.237 13.71-30.877 5.966-29.186-10.568l7.197-70.372h-44.28c-9.387 0-16.766-8.058-15.938-17.41l2.346-26.507c-44.125-11.714-75.408-51.739-75.408-98.085 0-55.031 44.021-99.974 98.7-101.462-7.616-69.983 49.688-138.038 126.8-138.038 55.784 0 104.362 36.073 121.22 87.856 78.412-13.508 149.28 47.153 149.28 125.644z"/></svg>