<svg id="Layer_1" enable-background="new 0 0 496.068 496.068" height="512" viewBox="0 0 496.068 496.068" width="512" xmlns="http://www.w3.org/2000/svg"><path d="m493.832 381.687c-1.173 8.747-9.213 14.906-17.984 13.731-8.758-1.174-14.906-9.227-13.731-17.984 17.404-129.812-83.861-244.874-214.082-244.874-130.3 0-231.478 115.124-214.082 244.874 1.175 8.758-4.973 16.81-13.731 17.984-8.747 1.174-16.811-4.973-17.984-13.731-10.218-76.164 14.791-152.846 70.434-208.489 96.921-96.922 253.794-96.932 350.725 0 55.468 55.468 80.68 132.113 70.435 208.489zm-245.798-225.126c-118.665 0-210.077 107.507-189.033 225.802 1.548 8.7 9.856 14.504 18.555 12.95 8.7-1.547 14.498-9.854 12.951-18.555-17.539-98.596 58.626-188.198 157.527-188.198 98.922 0 175.064 89.618 157.527 188.198-1.547 8.7 4.251 17.007 12.951 18.555 8.688 1.549 17.006-4.242 18.555-12.95 21.039-118.271-70.346-225.802-189.033-225.802zm0 56c-88.866 0-154.521 84.533-131.409 171.126 2.279 8.538 11.048 13.611 19.585 11.333 8.538-2.279 13.612-11.047 11.333-19.585-17.71-66.357 32.652-130.874 100.491-130.874 67.854 0 118.195 64.54 100.491 130.874-2.279 8.538 2.795 17.306 11.333 19.585 8.547 2.279 17.309-2.804 19.585-11.333 23.111-86.59-42.543-171.126-131.409-171.126zm0 56c-61.069 0-99.361 65.899-69.986 118.771 4.292 7.725 14.032 10.507 21.757 6.216s10.507-14.033 6.216-21.757c-17.631-31.731 5.425-71.229 42.014-71.229 36.597 0 59.639 39.507 42.014 71.229-4.292 7.724-1.509 17.465 6.216 21.757s17.467 1.507 21.757-6.216c29.421-52.959-9.007-118.771-69.988-118.771z"/></svg>